<svg width="16" height="16" viewBox="0 0 16 16" fill="none" xmlns="http://www.w3.org/2000/svg">
<path opacity="0.5" d="M15.867 14.5729L11.7268 10.4021C11.5719 10.2459 11.5562 10.0048 11.6763 9.82009C13.3736 7.21706 12.9776 3.63651 10.4736 1.49835C8.06431 -0.55929 4.39586 -0.488446 2.06207 1.65402C-0.617964 4.11425 -0.685718 8.30115 1.85947 10.8481C4.03044 13.0204 7.38944 13.2846 9.85677 11.6526C10.0421 11.5302 10.2849 11.5458 10.4411 11.7036L14.572 15.865C14.7505 16.0446 15.0407 16.0451 15.2199 15.866L15.8663 15.2192C16.0443 15.0406 16.0446 14.7516 15.8671 14.5731L15.867 14.5729ZM3.15256 9.55435C1.38556 7.78609 1.38599 4.90981 3.15256 3.14249C4.91855 1.37467 7.79275 1.37467 9.55921 3.14249C11.3255 4.91031 11.3255 7.78673 9.55921 9.55435C7.79264 11.3218 4.91902 11.3224 3.15256 9.55435Z" fill="white"/>
</svg>
