<svg xmlns="http://www.w3.org/2000/svg" width="30" height="30" viewBox="0 0 30 30" fill="none">
  <mask id="path-1-inside-1_1_1017" fill="white">
    <path fill-rule="evenodd" clip-rule="evenodd" d="M28.4247 21.699C29.4328 19.6827 30 17.4076 30 15C30 6.71573 23.2843 0 15 0C6.71573 0 0 6.71573 0 15C0 23.2843 6.71573 30 15 30C17.4076 30 19.6827 29.4328 21.699 28.4247C21.6096 28.0266 21.5625 27.6126 21.5625 27.1875C21.5625 24.0809 24.0809 21.5625 27.1875 21.5625C27.6126 21.5625 28.0266 21.6096 28.4247 21.699Z"/>
  </mask>
  <path d="M28.4247 21.699L28.2057 22.6747L28.9692 22.8461L29.3191 22.1462L28.4247 21.699ZM21.699 28.4247L22.1462 29.3191L22.8461 28.9692L22.6747 28.2057L21.699 28.4247ZM29 15C29 17.2489 28.4705 19.3712 27.5303 21.2518L29.3191 22.1462C30.3951 19.9942 31 17.5663 31 15H29ZM15 1C22.732 1 29 7.26801 29 15H31C31 6.16344 23.8366 -1 15 -1V1ZM1 15C1 7.26801 7.26801 1 15 1V-1C6.16344 -1 -1 6.16344 -1 15H1ZM15 29C7.26801 29 1 22.732 1 15H-1C-1 23.8366 6.16344 31 15 31V29ZM21.2518 27.5303C19.3712 28.4705 17.2489 29 15 29V31C17.5663 31 19.9942 30.3951 22.1462 29.3191L21.2518 27.5303ZM22.6747 28.2057C22.6014 27.879 22.5625 27.5384 22.5625 27.1875H20.5625C20.5625 27.6867 20.6179 28.1742 20.7233 28.6437L22.6747 28.2057ZM22.5625 27.1875C22.5625 24.6332 24.6332 22.5625 27.1875 22.5625V20.5625C23.5286 20.5625 20.5625 23.5286 20.5625 27.1875H22.5625ZM27.1875 22.5625C27.5384 22.5625 27.879 22.6014 28.2057 22.6747L28.6437 20.7233C28.1742 20.6179 27.6867 20.5625 27.1875 20.5625V22.5625Z" fill="url(#paint0_linear_1_1017)" fill-opacity="0.2" mask="url(#path-1-inside-1_1_1017)"/>
  <defs>
    <linearGradient id="paint0_linear_1_1017" x1="9.375" y1="-2.09548e-07" x2="30" y2="30" gradientUnits="userSpaceOnUse">
      <stop stop-color="#F1F1F1"/>
      <stop offset="1" stop-color="#F1F1F1" stop-opacity="0"/>
    </linearGradient>
  </defs>
</svg>